<svg xmlns="http://www.w3.org/2000/svg" width="100" height="100" viewBox="0 0 100 100"><path fill-rule="evenodd" clip-rule="evenodd" d="M50 48.5C50.8284 48.5 51.5 49.1716 51.5 50V51.4613C51.5 52.2897 50.8284 52.9613 50 52.9613C49.1716 52.9613 48.5 52.2897 48.5 51.4613V50C48.5 49.1716 49.1716 48.5 50 48.5Z"></path><path fill-rule="evenodd" clip-rule="evenodd" d="M50 55.8064C50.8284 55.8064 51.5 56.478 51.5 57.3064V86.5316C51.5 87.36 50.8284 88.0316 50 88.0316C49.1716 88.0316 48.5 87.36 48.5 86.5316V57.3064C48.5 56.478 49.1716 55.8064 50 55.8064Z"></path><path fill-rule="evenodd" clip-rule="evenodd" d="M40.8318 59.1681C41.4176 59.7539 41.4176 60.7036 40.8318 61.2894L35.4261 66.6951V74.8414C35.4261 75.2392 35.2681 75.6207 34.9868 75.902L29.434 81.4548C28.8482 82.0406 27.8985 82.0406 27.3127 81.4548C26.7269 80.869 26.7269 79.9193 27.3127 79.3335L32.4261 74.22V66.0738C32.4261 65.676 32.5842 65.2944 32.8655 65.0131L38.7105 59.1681C39.2963 58.5823 40.246 58.5823 40.8318 59.1681Z"></path><path fill-rule="evenodd" clip-rule="evenodd" d="M25.1586 80.7252C23.5759 80.7252 22.2748 82.0263 22.2748 83.609C22.2748 85.1917 23.5759 86.4928 25.1586 86.4928C26.7412 86.4928 28.0423 85.1917 28.0423 83.609C28.0423 82.0263 26.7412 80.7252 25.1586 80.7252ZM19.2748 83.609C19.2748 80.3695 21.9191 77.7252 25.1586 77.7252C28.3981 77.7252 31.0423 80.3695 31.0423 83.609C31.0423 86.8485 28.3981 89.4928 25.1586 89.4928C21.9191 89.4928 19.2748 86.8485 19.2748 83.609Z"></path><path fill-rule="evenodd" clip-rule="evenodd" d="M50.0001 88.0316C48.4174 88.0316 47.1163 89.3327 47.1163 90.9154C47.1163 92.4981 48.4174 93.7992 50.0001 93.7992C51.5827 93.7992 52.8838 92.4981 52.8838 90.9154C52.8838 89.3327 51.5827 88.0316 50.0001 88.0316ZM44.1163 90.9154C44.1163 87.6759 46.7605 85.0316 50.0001 85.0316C53.2396 85.0316 55.8838 87.6759 55.8838 90.9154C55.8838 94.1549 53.2396 96.7992 50.0001 96.7992C46.7605 96.7992 44.1163 94.1549 44.1163 90.9154Z"></path><path fill-rule="evenodd" clip-rule="evenodd" d="M9.08471 60.2675C7.50206 60.2675 6.20093 61.5686 6.20093 63.1512C6.20093 64.7339 7.50206 66.035 9.08471 66.035C10.6674 66.035 11.9685 64.7339 11.9685 63.1512C11.9685 61.5686 10.6674 60.2675 9.08471 60.2675ZM3.20093 63.1512C3.20093 59.9117 5.8452 57.2675 9.08471 57.2675C12.3242 57.2675 14.9685 59.9117 14.9685 63.1512C14.9685 66.3907 12.3242 69.035 9.08471 69.035C5.8452 69.035 3.20093 66.3907 3.20093 63.1512Z"></path><path fill-rule="evenodd" clip-rule="evenodd" d="M59.1682 59.1681C59.7539 58.5823 60.7037 58.5823 61.2895 59.1681L67.1345 65.0131C67.4158 65.2944 67.5739 65.676 67.5739 66.0738V74.22L72.6873 79.3335C73.2731 79.9193 73.2731 80.869 72.6873 81.4548C72.1015 82.0406 71.1518 82.0406 70.566 81.4548L65.0132 75.902C64.7319 75.6207 64.5739 75.2392 64.5739 74.8414V66.6951L59.1682 61.2894C58.5824 60.7036 58.5824 59.7539 59.1682 59.1681Z"></path><path fill-rule="evenodd" clip-rule="evenodd" d="M74.8414 80.7252C73.2588 80.7252 71.9576 82.0263 71.9576 83.609C71.9576 85.1917 73.2588 86.4928 74.8414 86.4928C76.4241 86.4928 77.7252 85.1917 77.7252 83.609C77.7252 82.0263 76.4241 80.7252 74.8414 80.7252ZM68.9576 83.609C68.9576 80.3695 71.6019 77.7252 74.8414 77.7252C78.0809 77.7252 80.7252 80.3695 80.7252 83.609C80.7252 86.8485 78.0809 89.4928 74.8414 89.4928C71.6019 89.4928 68.9576 86.8485 68.9576 83.609Z"></path><path fill-rule="evenodd" clip-rule="evenodd" d="M90.9153 60.2675C89.3326 60.2675 88.0315 61.5686 88.0315 63.1512C88.0315 64.7339 89.3326 66.035 90.9153 66.035C92.4979 66.035 93.7991 64.7339 93.7991 63.1512C93.7991 61.5686 92.4979 60.2675 90.9153 60.2675ZM85.0315 63.1512C85.0315 59.9117 87.6758 57.2675 90.9153 57.2675C94.1548 57.2675 96.7991 59.9117 96.7991 63.1512C96.7991 66.3907 94.1548 69.035 90.9153 69.035C87.6758 69.035 85.0315 66.3907 85.0315 63.1512Z"></path><path fill-rule="evenodd" clip-rule="evenodd" d="M25.1586 54.3451C25.987 54.3451 26.6586 55.0167 26.6586 55.8451V63.1514C26.6586 63.9798 25.987 64.6514 25.1586 64.6514H13.4685C12.6401 64.6514 11.9685 63.9798 11.9685 63.1514C11.9685 62.323 12.6401 61.6514 13.4685 61.6514H23.6586V55.8451C23.6586 55.0167 24.3302 54.3451 25.1586 54.3451Z"></path><path fill-rule="evenodd" clip-rule="evenodd" d="M50 26.6586C37.0926 26.6586 26.6586 37.0926 26.6586 50C26.6586 50.8284 25.987 51.5 25.1586 51.5C24.3301 51.5 23.6586 50.8284 23.6586 50C23.6586 35.4357 35.4357 23.6586 50 23.6586C64.5643 23.6586 76.3414 35.4357 76.3414 50C76.3414 50.8284 75.6699 51.5 74.8414 51.5C74.013 51.5 73.3414 50.8284 73.3414 50C73.3414 37.0926 62.9074 26.6586 50 26.6586Z"></path><path fill-rule="evenodd" clip-rule="evenodd" d="M74.8414 54.3451C75.6699 54.3451 76.3414 55.0167 76.3414 55.8451V61.6514H86.5315C87.3599 61.6514 88.0315 62.323 88.0315 63.1514C88.0315 63.9798 87.3599 64.6514 86.5315 64.6514H74.8414C74.013 64.6514 73.3414 63.9798 73.3414 63.1514V55.8451C73.3414 55.0167 74.013 54.3451 74.8414 54.3451Z"></path><path fill-rule="evenodd" clip-rule="evenodd" d="M42.7324 6.81988V11.5689C42.7324 12.2749 42.2401 12.8854 41.5501 13.0349C37.345 13.946 33.3461 15.6294 29.8395 17.8736C29.2774 18.2333 28.5453 18.1785 28.0431 17.739L27.4586 17.2276C27.4299 17.2024 27.4021 17.1761 27.3753 17.1489L24.6074 14.3256C20.6421 17.1557 17.1557 20.6421 14.3256 24.6074L17.1489 27.3753C17.1761 27.4021 17.2024 27.4299 17.2276 27.4586L17.739 28.0431C18.1785 28.5453 18.2333 29.2774 17.8736 29.8395C15.6294 33.3461 13.946 37.345 13.0349 41.5501C12.8854 42.2401 12.2749 42.7324 11.5689 42.7324H6.81988C6.40759 45.1002 6.20093 47.5223 6.20093 50C6.20093 50.8284 5.52935 51.5 4.70093 51.5C3.8725 51.5 3.20093 50.8284 3.20093 50C3.20093 46.9062 3.50284 43.8826 4.10829 40.931C4.25141 40.2333 4.86545 39.7324 5.57769 39.7324H10.379C11.3155 35.992 12.8105 32.4282 14.7353 29.2104L11.3224 25.8644C10.8065 25.3585 10.7245 24.5567 11.1273 23.9569C14.5237 18.9002 18.9002 14.5237 23.9569 11.1273C24.5567 10.7245 25.3585 10.8065 25.8644 11.3224L29.2104 14.7353C32.4282 12.8105 35.992 11.3155 39.7324 10.379V5.57769C39.7324 4.86545 40.2333 4.25141 40.931 4.10829C43.8826 3.50284 46.9062 3.20093 50 3.20093C53.0938 3.20093 56.1174 3.50284 59.069 4.10829C59.7667 4.25141 60.2676 4.86545 60.2676 5.57769V10.379C64.008 11.3155 67.5718 12.8105 70.7896 14.7353L74.1356 11.3224C74.6415 10.8065 75.4433 10.7245 76.0431 11.1273C81.0998 14.5237 85.4763 18.9002 88.8727 23.9569C89.2755 24.5567 89.1935 25.3585 88.6776 25.8644L85.2647 29.2104C87.1895 32.4282 88.6844 35.992 89.621 39.7324H94.4223C95.1346 39.7324 95.7486 40.2333 95.8917 40.931C96.4972 43.8826 96.7991 46.9062 96.7991 50C96.7991 50.8284 96.1275 51.5 95.2991 51.5C94.4706 51.5 93.7991 50.8284 93.7991 50C93.7991 47.5223 93.5924 45.1002 93.1801 42.7324H88.4311C87.7251 42.7324 87.1147 42.2401 86.9651 41.5501C86.054 37.345 84.3706 33.3461 82.1264 29.8395C81.7667 29.2774 81.8215 28.5453 82.261 28.0431L82.7724 27.4586C82.7976 27.4299 82.8239 27.4021 82.8512 27.3753L85.6744 24.6074C82.8443 20.6421 79.3579 17.1557 75.3926 14.3256L72.6247 17.1489C72.5979 17.1761 72.5701 17.2024 72.5414 17.2276L71.9569 17.739C71.4547 18.1785 70.7226 18.2333 70.1605 17.8736C66.6539 15.6294 62.655 13.946 58.4499 13.0349C57.7599 12.8854 57.2676 12.2749 57.2676 11.5689V6.81988C54.8998 6.40759 52.4777 6.20093 50 6.20093C47.5223 6.20093 45.1002 6.40759 42.7324 6.81988Z"></path><path fill-rule="evenodd" clip-rule="evenodd" d="M50 41.2712C45.2026 41.2712 41.2712 45.2026 41.2712 50.0001C41.2712 50.8285 40.5996 51.5001 39.7712 51.5001C38.9428 51.5001 38.2712 50.8285 38.2712 50.0001C38.2712 43.5458 43.5457 38.2712 50 38.2712C56.4543 38.2712 61.7288 43.5458 61.7288 50.0001C61.7288 50.8285 61.0573 51.5001 60.2288 51.5001C59.4004 51.5001 58.7288 50.8285 58.7288 50.0001C58.7288 45.2026 54.7974 41.2712 50 41.2712Z"></path></svg>