<?xml version="1.0" encoding="utf-8"?>
<!-- Generator: Adobe Illustrator 28.0.0, SVG Export Plug-In . SVG Version: 6.00 Build 0)  -->
<svg version="1.1" id="Layer_1" xmlns="http://www.w3.org/2000/svg" xmlns:xlink="http://www.w3.org/1999/xlink" x="0px" y="0px"
	 viewBox="0 0 215 62" style="enable-background:new 0 0 215 62;" xml:space="preserve">
<style type="text/css">
	.st0{fill:#FF6600;}
	.st1{fill:#E0E0E0;}
	.st2{fill:#CACACA;}
	.st3{font-family:'Helvetica';}
	.st4{font-size:18px;}
	.st5{font-family:'Helvetica-Bold';}
</style>
<g id="uuid-36b4f38d-82ab-4769-85a6-1757a5d82573">
	<g id="uuid-7d66c6dc-fc9e-4ba1-b833-65066a7c4247">
		<g id="uuid-b8891b53-f348-47c3-9d92-7338778cfcf4">
			<path id="uuid-e3d9be24-0379-461e-9289-5bbd376c2387" class="st0" d="M31.1,0c5.1,0,9.9,1.2,14.1,3.4c-1.5,1.9-2.6,4.5-4.9,5.3
				c-2.9,1-6.1-1.5-9.2-1.6c-3.4,0-6.8,2.4-10.1,1.3c-2.1-0.7-3-3.1-4.3-5C21.1,1.3,26,0,31.1,0 M57.7,14.8
				c2.9,4.7,4.6,10.3,4.6,16.3c0,15.2-10.9,27.8-25.2,30.6c1.1-0.5,2.2-1.1,3.1-1.9c0.5-0.4,0-1.3,0.3-1.8s1-0.4,1.3-0.9
				c0.6-0.9,0.5-2.1,1.1-2.9c0.7-0.9,1.8-1.4,2.6-2.2c0.5-0.5,0.9-1,1.4-1.4c2.8-2.7,6.5-4.8,8.6-8.2c1.7-2.8,2.2-6.3,2.4-9.6
				c0.1-2.7-1.1-5.3-1.5-8c-0.2-1.4-0.6-2.8-0.3-4.1c0.2-1,1.5-1.5,1.8-2.5C58,17,57.7,15.9,57.7,14.8 M27.2,62
				C11.9,60.1,0,47,0,31.1c0-5.9,1.7-11.5,4.6-16.2c0,1.2-0.1,2.4,0.2,3.6C5,19.2,6,19.6,6.2,20.3c0.3,1.1,0.4,2.3,0.2,3.5
				c-0.3,1.8-1.3,3.4-1.6,5.1c-0.3,2.3-0.6,4.6-0.2,6.8c0.4,2.5,1.1,5,2.6,7C9.6,46,13,48.5,16,51.3c1.1,1,2.5,1.7,3.4,2.8
				c0.5,0.6,0.2,1.5,0.6,2.1c0.5,0.7,1.4,1.1,1.9,1.8c0.4,0.7,0,1.9,0.7,2.4C24,61.3,25.7,61.7,27.2,62"/>
		</g>
		<g id="uuid-ce6c619f-feea-4dcb-9b23-c56e8af9b92a">
			<path id="uuid-ddc55242-3c18-4ef0-b432-020824885082" class="st1" d="M7.4,16.6C7.1,14.3,5.9,12,6.1,9.7c0.2-1.7,1-3.5,2.3-4.6
				c1.1-0.9,2.7-1.2,4.1-1.1c1.7,0.2,3.3,1,4.7,2c2,1.6,2.6,4.9,5,5.7c2.9,0.9,5.9-1.2,8.9-1.2c2.8,0,5.5,2.3,8.1,1.4
				c2.7-0.9,3.4-4.6,5.8-6.1c1.8-1.2,4-1.6,6.1-1.8c0.9-0.1,1.8,0.3,2.4,0.9c1.1,1.2,2.3,2.8,2.4,4.4c0.2,2.4-1.1,4.7-1.4,7.1
				c-0.2,1.2,0.4,2.5,0,3.7c-0.2,0.9-1.4,1.3-1.6,2.2c-0.3,1.2,0.1,2.5,0.3,3.6c0.4,2.4,1.5,4.7,1.4,7.2c-0.1,2.9-0.6,6.1-2.1,8.6
				c-1.8,3-5.1,4.8-7.6,7.3c-0.4,0.4-0.8,0.9-1.3,1.3c-0.8,0.7-1.7,1.1-2.3,2c-0.5,0.7-0.5,1.8-1,2.6c-0.2,0.4-0.9,0.4-1.2,0.8
				c-0.3,0.5,0.2,1.3-0.2,1.6c-1.1,1-2.5,1.7-3.9,2.2c-1,0.4-2.2,0.3-3.3,0.3c-1.1,0-2.3,0-3.4-0.3c-1.7-0.4-3.5-0.7-5-1.7
				c-0.6-0.4-0.2-1.5-0.6-2.1c-0.4-0.7-1.2-1-1.7-1.6c-0.4-0.5-0.1-1.4-0.5-1.9c-0.8-1-2.1-1.6-3.1-2.5c-2.7-2.5-5.7-4.7-7.9-7.6
				c-1.3-1.8-1.9-4.1-2.3-6.2c-0.3-2-0.1-4.1,0.2-6.1c0.2-1.6,1.2-3,1.4-4.5c0.2-1,0.1-2.1-0.2-3.1c-0.2-0.6-1.1-0.9-1.3-1.6
				C7.3,19.4,7.6,18,7.4,16.6"/>
		</g>
		<g id="uuid-803098d2-eb8a-4d45-9390-6d7443b5f865">
			<path id="uuid-0b0c7fdc-0632-4883-9269-254ef729e5e0" class="st1" d="M84.2,0.3c4,0,7.4,1.4,10.1,4c2.7,2.7,4.1,6,4.1,9.9
				s-1.3,7.2-4.1,9.9c-2.7,2.7-6,4.1-9.9,4.1s-7.3-1.3-10-4s-4.1-6-4.1-9.8c0-2.6,0.6-4.9,1.8-7.1c1.2-2.2,2.9-3.9,5.1-5.1
				S81.7,0.3,84.2,0.3 M84.3,2.9c-2,0-3.8,0.5-5.6,1.5c-1.8,1-3.1,2.4-4.1,4.1s-1.5,3.7-1.5,5.8c0,3.2,1.1,5.8,3.3,8
				c2.2,2.2,4.8,3.3,7.9,3.3c2.1,0,4-0.5,5.7-1.5c1.8-1,3.1-2.4,4.1-4.1s1.5-3.7,1.5-5.8s-0.5-4-1.5-5.7s-2.4-3.1-4.2-4.1
				C88.2,3.4,86.3,2.9,84.3,2.9 M128.5,5.9l-2.1,1.6c-1.2-1.5-2.6-2.6-4.2-3.4s-3.4-1.2-5.3-1.2c-2.1,0-4.1,0.5-5.9,1.5
				s-3.2,2.4-4.2,4.1s-1.5,3.7-1.5,5.8c0,3.2,1.1,6,3.3,8.1c2.2,2.2,5,3.3,8.4,3.3c3.7,0,6.8-1.5,9.3-4.4l2.1,1.6
				c-1.3,1.7-3,3-5,3.9s-4.2,1.4-6.7,1.4c-4.7,0-8.3-1.5-11-4.6c-2.3-2.6-3.4-5.8-3.4-9.5c0-3.9,1.4-7.2,4.1-9.8
				c2.7-2.7,6.2-4,10.3-4c2.5,0,4.7,0.5,6.7,1.5C125.6,2.7,127.2,4.1,128.5,5.9 M133.8,0.9h15.3v2.6h-12.6v8.3H149v2.6h-12.5V25H149
				v2.6h-15.2V0.9L133.8,0.9L133.8,0.9z M153.7,0.9h2.7V25h10.2v2.6h-12.9V0.9L153.7,0.9L153.7,0.9z M183.5,0.3c4,0,7.4,1.4,10.1,4
				c2.7,2.7,4.1,6,4.1,9.9s-1.4,7.2-4.1,9.9c-2.7,2.7-6,4.1-9.9,4.1s-7.3-1.3-10-4s-4.1-6-4.1-9.8c0-2.6,0.6-4.9,1.9-7.1
				c1.2-2.2,2.9-3.9,5.1-5.1S181,0.3,183.5,0.3 M183.6,2.9c-2,0-3.8,0.5-5.6,1.5s-3.1,2.4-4.1,4.1s-1.5,3.7-1.5,5.8
				c0,3.2,1.1,5.8,3.3,8s4.8,3.3,7.9,3.3c2.1,0,4-0.5,5.7-1.5s3.1-2.4,4.1-4.1s1.5-3.7,1.5-5.8s-0.5-4-1.5-5.7s-2.4-3.1-4.1-4.1
				C187.5,3.4,185.6,2.9,183.6,2.9 M200.4,3.5V0.9H215v2.6h-5.9v24h-2.7v-24H200.4L200.4,3.5z"/>
		</g>
		<g id="uuid-d7cf37d0-f044-4850-9a95-88987b5e275c">
			<path id="uuid-9146962c-1316-438e-8bb6-ac9a5dc1a957" class="st1" d="M79.4,33l-0.7,0.6c-0.4-0.5-0.9-0.9-1.4-1.2
				S76.1,32,75.4,32c-0.7,0-1.4,0.2-2.1,0.5c-0.6,0.4-1.1,0.8-1.5,1.4s-0.5,1.3-0.5,2c0,1.1,0.4,2.1,1.2,2.8s1.8,1.1,2.9,1.1
				c1.3,0,2.4-0.5,3.3-1.5l0.7,0.6c-0.5,0.6-1,1-1.7,1.4s-1.5,0.5-2.3,0.5c-1.6,0-2.9-0.5-3.8-1.6c-0.8-0.9-1.2-2-1.2-3.3
				c0-1.4,0.5-2.5,1.4-3.4c0.9-0.9,2.2-1.4,3.6-1.4c0.9,0,1.7,0.2,2.3,0.5C78.4,31.9,79,32.3,79.4,33 M92.9,31
				c1.4,0,2.6,0.5,3.5,1.4s1.4,2.1,1.4,3.5s-0.5,2.5-1.4,3.5s-2.1,1.4-3.5,1.4s-2.5-0.5-3.5-1.4S88,37.2,88,35.9
				c0-0.9,0.2-1.7,0.7-2.5s1-1.4,1.8-1.8S92,31,92.9,31 M92.9,31.9c-0.7,0-1.3,0.2-1.9,0.5s-1.1,0.8-1.4,1.5c-0.3,0.6-0.5,1.3-0.5,2
				c0,1.1,0.4,2,1.2,2.8c0.8,0.8,1.7,1.1,2.8,1.1c0.7,0,1.4-0.2,2-0.5s1.1-0.8,1.4-1.4c0.3-0.6,0.5-1.3,0.5-2s-0.2-1.4-0.5-2
				s-0.8-1.1-1.4-1.4C94.3,32.1,93.6,31.9,92.9,31.9 M106.9,40.5v-9.3h0.2l6.2,7.1v-7.1h0.9v9.3H114l-6.1-7v7H106.9L106.9,40.5z
				 M122.7,38.8l0.8-0.5c0.6,1,1.2,1.5,1.9,1.5c0.3,0,0.6-0.1,0.9-0.2c0.3-0.1,0.5-0.3,0.6-0.6c0.1-0.2,0.2-0.5,0.2-0.8
				s-0.1-0.6-0.3-0.9c-0.3-0.4-0.8-0.9-1.6-1.5c-0.8-0.6-1.3-1-1.4-1.3c-0.3-0.4-0.5-0.9-0.5-1.4c0-0.4,0.1-0.8,0.3-1.1
				s0.5-0.6,0.8-0.8c0.3-0.2,0.7-0.3,1.1-0.3s0.8,0.1,1.2,0.3c0.4,0.2,0.8,0.6,1.2,1.2l-0.8,0.6c-0.3-0.5-0.7-0.8-0.9-0.9
				c-0.2-0.2-0.5-0.2-0.8-0.2c-0.4,0-0.7,0.1-0.9,0.3c-0.2,0.2-0.4,0.5-0.4,0.8c0,0.2,0,0.4,0.1,0.6c0.1,0.2,0.2,0.4,0.5,0.6
				c0.1,0.1,0.5,0.4,1.2,0.9c0.8,0.6,1.4,1.1,1.7,1.6c0.3,0.5,0.4,0.9,0.4,1.4c0,0.7-0.3,1.3-0.8,1.8s-1.1,0.8-1.9,0.8
				c-0.6,0-1.1-0.2-1.5-0.5S123,39.5,122.7,38.8 M137.2,31.2h0.9v5.6c0,0.7,0,1.1,0,1.2c0.1,0.4,0.2,0.7,0.3,0.9
				c0.2,0.2,0.4,0.5,0.8,0.6c0.4,0.2,0.7,0.2,1.1,0.2c0.3,0,0.6-0.1,0.9-0.2c0.3-0.1,0.5-0.3,0.7-0.5s0.3-0.5,0.4-0.8
				c0.1-0.2,0.1-0.7,0.1-1.5v-5.6h0.9v5.6c0,0.8-0.1,1.5-0.2,2s-0.5,1-1,1.3c-0.5,0.4-1.1,0.6-1.8,0.6c-0.8,0-1.4-0.2-1.9-0.5
				s-0.9-0.8-1.1-1.4c-0.1-0.4-0.2-1-0.2-2L137.2,31.2L137.2,31.2L137.2,31.2z M152.9,31.2h0.9v8.4h3.6v0.9h-4.5V31.2L152.9,31.2
				L152.9,31.2z M165.1,32.1v-0.9h5.1v0.9h-2.1v8.4h-0.9v-8.4H165.1z M178.5,31.2h0.9v9.3h-0.9V31.2z M188.8,40.5v-9.3h0.2l6.2,7.1
				v-7.1h0.9v9.3h-0.2l-6.1-7v7H188.8L188.8,40.5L188.8,40.5z M214.5,32.8l-0.7,0.7c-0.5-0.5-1.1-0.9-1.7-1.2s-1.2-0.4-1.8-0.4
				c-0.7,0-1.4,0.2-2.1,0.5s-1.2,0.8-1.5,1.5s-0.5,1.3-0.5,1.9s0.2,1.4,0.6,2c0.4,0.6,0.9,1.1,1.6,1.5s1.4,0.5,2.2,0.5
				c1,0,1.8-0.3,2.4-0.8c0.7-0.5,1.1-1.2,1.2-2.1h-3V36h4c0,1.4-0.4,2.6-1.3,3.4c-0.8,0.8-2,1.3-3.4,1.3c-1.7,0-3.1-0.6-4.1-1.8
				c-0.8-0.9-1.2-1.9-1.2-3.1c0-0.9,0.2-1.7,0.7-2.5s1.1-1.3,1.8-1.8s1.6-0.6,2.6-0.6c0.8,0,1.5,0.1,2.2,0.4
				C213.1,31.7,213.8,32.2,214.5,32.8"/>
		</g>
	</g>
</g>
<text transform="matrix(1 0 0 1 70.3 61.811)" class="st2 st3 st4">Part of </text>
<text transform="matrix(1 0 0 1 126.817 61.8105)" class="st2 st5 st4">Accenture</text>
</svg>
