<?xml version="1.0" encoding="utf-8"?>
<svg viewBox="137.199 454.453 285.652 285.652" width="285.652" height="285.652" xmlns="http://www.w3.org/2000/svg">
  <circle style="fill: rgb(248, 248, 248);" cx="280.025" cy="597.279" r="142.826"/>
  <g id="g10" transform="matrix(1.25, 0, 0, -1.25, 0, 1200)">
    <g id="g4143">
      <g transform="translate(224.2598,583.8545)" id="g20">
        <path id="path22" style="fill:#ff6600;fill-opacity:1;fill-rule:evenodd;stroke:none" d="m 0,0 c 17.008,0 33.064,-4.077 47.25,-11.303 -5.183,-6.526 -8.717,-15.19 -16.355,-17.775 -9.829,-3.325 -20.323,5.053 -30.696,5.181 -11.324,0.142 -22.923,-7.893 -33.687,-4.385 -7.013,2.284 -10.032,10.32 -14.481,16.606 C -33.608,-4.219 -17.296,0 0,0 m 88.829,-49.666 c 9.783,-15.88 15.43,-34.578 15.43,-54.594 0,-50.798 -36.35,-93.116 -84.45,-102.372 3.748,1.635 7.32,3.727 10.289,6.467 1.526,1.405 -0.139,4.354 0.893,6.151 0.877,1.525 3.415,1.491 4.363,2.973 1.862,2.912 1.672,6.887 3.713,9.671 2.255,3.082 5.926,4.827 8.77,7.377 1.681,1.506 3.155,3.224 4.786,4.785 9.534,9.137 21.781,16.061 28.701,27.307 5.813,9.443 7.453,21.22 7.974,32.293 0.428,9.124 -3.81,17.877 -5.182,26.91 -0.69,4.545 -2.006,9.267 -0.996,13.752 0.753,3.346 5.121,5.051 5.979,8.372 0.911,3.523 -0.068,7.247 -0.27,10.908 m -101.87,-158.043 c -51.419,6.419 -91.218,50.294 -91.218,103.449 0,19.875 5.566,38.453 15.221,54.26 0.091,-4.023 -0.301,-8.107 0.735,-11.966 0.66,-2.467 4.035,-3.542 4.783,-5.982 1.131,-3.688 1.23,-7.755 0.599,-11.56 -0.983,-5.909 -4.5,-11.22 -5.382,-17.142 -1.13,-7.56 -1.925,-15.399 -0.599,-22.925 1.447,-8.241 3.81,-16.782 8.77,-23.522 8.133,-11.049 19.529,-19.286 29.601,-28.603 3.641,-3.365 8.35,-5.6 11.505,-9.422 1.557,-1.887 0.768,-4.977 2.084,-7.042 1.555,-2.444 4.725,-3.584 6.247,-6.051 1.45,-2.348 0.094,-6.387 2.381,-7.931 4.488,-3.037 9.916,-4.358 15.273,-5.563"/>
      </g>
      <g style="fill:#404040;fill-opacity:1" transform="translate(144.8218,528.1763)" id="g24">
        <path id="path26" style="fill:#404040;fill-opacity:1;fill-rule:evenodd;stroke:none" d="m 0,0 c -1.078,7.737 -4.937,15.267 -4.255,23.051 0.499,5.713 3.328,11.627 7.624,15.427 3.565,3.152 9.099,4.058 13.831,3.546 5.631,-0.611 11.175,-3.205 15.603,-6.738 6.646,-5.302 8.762,-16.517 16.845,-19.15 9.577,-3.12 19.894,4.025 29.966,3.901 9.229,-0.115 18.563,-7.569 27.306,-4.611 8.871,3.002 11.52,15.221 19.328,20.392 5.956,3.943 13.459,5.326 20.568,6.028 2.905,0.287 6.202,-1.023 8.157,-3.191 3.791,-4.203 7.642,-9.259 8.156,-14.895 0.738,-8.092 -3.627,-15.872 -4.61,-23.938 -0.5,-4.106 1.214,-8.405 0.178,-12.412 -0.765,-2.953 -4.65,-4.471 -5.32,-7.447 -0.898,-3.988 0.272,-8.192 0.886,-12.235 1.221,-8.033 4.992,-15.821 4.611,-23.937 -0.464,-9.851 -1.924,-20.326 -7.093,-28.725 -6.156,-10.005 -17.052,-16.164 -25.533,-24.293 -1.449,-1.388 -2.763,-2.916 -4.256,-4.255 -2.529,-2.268 -5.794,-3.82 -7.802,-6.561 -1.814,-2.478 -1.648,-6.015 -3.302,-8.604 -0.843,-1.319 -3.101,-1.29 -3.882,-2.646 -0.919,-1.596 0.56,-4.22 -0.794,-5.47 -3.636,-3.357 -8.29,-5.617 -12.968,-7.235 -3.491,-1.206 -7.336,-1.029 -11.028,-1.058 -3.776,-0.029 -7.616,0.024 -11.292,0.883 -5.714,1.333 -11.813,2.36 -16.674,5.645 -2.035,1.376 -0.828,4.969 -2.117,7.058 -1.354,2.194 -4.174,3.207 -5.558,5.382 -1.168,1.837 -0.467,4.585 -1.852,6.263 -2.807,3.401 -6.998,5.388 -10.234,8.381 -8.96,8.289 -19.096,15.616 -26.333,25.445 -4.412,5.996 -6.512,13.594 -7.802,20.924 -1.177,6.696 -0.471,13.667 0.533,20.391 0.786,5.27 3.912,9.995 4.787,15.249 0.565,3.386 0.474,7.004 -0.532,10.285 -0.665,2.171 -3.666,3.127 -4.255,5.319 C -0.312,-9.37 0.638,-4.576 0,0"/>
      </g>
      <g style="fill:#404040;fill-opacity:1" transform="translate(401.8252,556.1445)" id="g28"/>
      <g style="fill:#404040;fill-opacity:1" transform="translate(385.8926,429.9912)" id="g32"/>
    </g>
  </g>
</svg>