<svg xmlns="http://www.w3.org/2000/svg" width="601" height="690" viewBox="0 0 601 690"><g clip-path="url(#clip0_59_435)"><path d="M600.5 0H0.5V690H600.5V0Z" fill="#E2E2E2"></path><path d="M166.389 462.215C166.389 462.215 177.176 526.445 142.609 545.812C122.017 557.58 132.068 647.796 125.939 715.458C124.468 731.393 122.262 745.857 118.584 757.87C120.546 812.049 102.65 880.201 99.7077 888.536C84.7533 928.006 77.8895 947.863 70.5349 949.089C-3.99161 962.082 3.60814 861.57 5.07906 836.564C6.54998 805.92 16.1109 694.375 16.1109 690.698C16.8464 657.112 15.3755 520.071 50.1872 511.981C73.7219 506.588 83.7727 489.182 166.389 462.215Z" fill="#777777"></path><path d="M652.528 726C667.972 805.43 681.701 935.851 681.701 935.851C679.495 941.244 591.73 947.864 575.059 950.315C558.634 952.767 542.699 858.873 535.835 840.486C500.533 746.593 502.004 735.561 495.139 699.278C493.914 692.659 492.443 684.814 490.236 675.744C487.049 661.28 450.522 635.784 450.031 569.102C449.296 477.17 486.314 476.434 525.293 486.976C536.08 489.918 601.046 503.156 590.994 529.142C582.659 550.961 610.607 570.328 621.638 621.81C623.6 630.881 629.729 621.81 631.199 648.532C632.18 668.879 646.399 694.866 652.528 726Z" fill="#777777"></path><path d="M535.1 684.569C533.874 757.38 481.656 899.078 473.811 958.405C465.966 1017.49 511.81 1171.69 511.81 1171.69H64.4058C64.4058 1171.69 88.9209 897.852 84.263 874.072C79.3604 850.538 75.4379 792.927 75.6831 769.147C76.1734 745.612 74.9474 726.49 63.6703 685.795C46.7548 580.869 136.971 472.021 136.971 472.021C198.504 443.584 183.305 431.326 230.129 422.255C273.276 413.92 321.816 392.592 337.506 387.934C368.395 378.863 367.17 412.939 456.651 455.351C546.377 497.517 536.325 611.759 535.1 684.569Z" fill="#E6E6E6"></path><path d="M355.157 535.761C351.48 542.38 340.693 559.786 340.693 559.786C340.693 559.786 291.417 600.236 267.392 594.843C229.148 586.017 206.104 549.49 206.104 549.49L197.033 440.396C197.033 440.396 206.839 438.68 210.762 438.68C214.684 438.68 254.399 492.369 269.108 489.427C284.063 486.485 282.346 481.337 290.191 481.582C396.833 413.43 396.588 462.215 355.157 535.761Z" fill="url(#paint0_linear_59_435)"></path><path d="M358.344 437.21L373.298 452.409C364.718 469.815 297.546 511.981 264.941 507.814C232.335 503.891 210.271 468.099 210.271 468.099L210.762 438.681C210.762 438.681 238.709 489.672 269.108 489.427C299.507 489.182 358.344 437.21 358.344 437.21Z" fill="#C9C9C9"></path><path d="M390.704 386.463L415.955 433.042L342.164 553.412C342.164 553.412 324.513 504.136 311.274 491.634C297.791 479.376 287.495 480.111 287.495 480.111C364.718 436.719 374.769 418.578 390.704 386.463Z" fill="url(#paint1_linear_59_435)"></path><path d="M258.567 483.298C258.567 483.298 240.671 479.866 233.071 488.937C225.471 497.762 210.517 546.057 210.517 546.057L192.866 432.306C192.866 432.306 199.975 426.668 206.104 394.063C213.214 437.7 228.413 461.48 258.567 483.298Z" fill="url(#paint2_linear_59_435)"></path><path d="M287.495 483.298L306.617 498.743C306.617 498.743 284.798 534.045 276.708 534.045C268.618 534.045 257.831 534.045 257.831 534.045L239.69 498.253L258.567 483.298H287.495Z" fill="#C9C9C9"></path><path d="M299.752 601.217L309.804 1001.31L248.761 1065.78L201.201 1002.04L229.884 606.61L257.831 534.045L277.198 524.974L299.752 601.217Z" fill="#C9C9C9"></path><path d="M532.893 679.911C531.912 753.457 480.185 896.381 472.585 956.199C464.985 1016.02 511.319 1171.69 511.319 1171.69H63.9151C63.9151 1171.69 87.4493 895.401 82.5463 871.376C77.8889 847.351 73.4761 789.249 73.7212 765.47C74.2116 741.445 72.7406 722.078 61.4636 681.137C44.0577 575.231 134.274 467.363 134.274 467.363C195.562 438.926 180.117 424.216 226.941 415.146C270.088 406.565 318.384 384.992 334.319 380.334C365.208 371.509 363.982 405.83 453.708 448.487C543.434 491.143 533.873 606.365 532.893 679.911Z" fill="#8C8C8C"></path><path d="M400.265 422.5C400.265 422.5 300.733 493.35 252.437 482.318C204.387 471.286 197.523 447.016 204.878 429.12C211.987 411.469 209.781 325.175 217.626 304.091C225.471 283.253 291.417 243.293 328.68 258.003C365.943 272.467 373.053 289.627 373.053 289.627C373.053 289.627 367.904 384.747 400.265 422.5Z" fill="url(#paint3_linear_59_435)"></path><path d="M255.426 483.543C255.426 483.543 238.066 476.541 230.129 483.543C222.529 492.614 206.104 543.851 206.104 543.851C199.485 505.852 195.072 460.499 193.356 429.119C193.356 429.119 194.092 419.313 202.917 387.934C210.272 432.061 225.273 461.725 255.426 483.543Z" fill="url(#paint4_linear_59_435)"></path><path d="M387.272 380.334L412.768 427.403L339.467 548.999C339.467 548.999 321.257 502.66 308.018 490.157C294.535 477.654 277.893 482.328 277.893 482.328C354.871 438.691 371.582 412.694 387.272 380.334Z" fill="url(#paint5_linear_59_435)"></path><path d="M194.091 419.313L210.272 1171.69H64.4059L77.1539 885.104L54.5998 662.015L38.4197 550.47C36.7036 538.458 39.6454 526.445 46.7549 516.394L55.3352 511.981C88.9207 497.517 116.378 479.131 150.944 454.125L194.091 419.313Z" fill="#777777"></path><path d="M435.077 431.816L548.338 496.046V668.144L511.319 846.125L495.63 862.55L502.494 883.388L490.972 892.214L511.319 1171.69H268.373L253.909 910.355C259.792 786.798 359.079 547.528 394.381 417.842C399.285 400.682 390.459 386.708 390.459 386.708L435.077 431.816Z" fill="#777777"></path><path d="M154.622 486.976L131.822 516.884L146.531 797.339L124.958 511.981L149.228 485.014L148.002 464.667L154.622 486.976Z" fill="#4F4F4F"></path><path d="M449.05 491.634L420.858 491.879L445.128 513.697C382.614 636.029 320.835 763.509 303.92 831.416C317.648 760.322 384.82 633.087 437.773 512.717L403.697 491.879L446.844 487.466V439.171L449.05 491.634Z" fill="#4F4F4F"></path><path d="M394.627 156.999C396.098 190.095 379.182 278.105 376.976 296.737C374.77 315.369 369.376 326.646 360.306 339.639C351.48 352.632 314.707 384.011 272.541 384.011C230.62 383.766 198.995 347.238 190.169 325.91C181.099 304.582 178.647 260.209 174.479 249.177C170.557 238.145 175.215 242.313 174.725 213.385C174.234 184.456 152.171 63.1057 283.082 69.7248C396.343 75.3634 393.401 123.904 394.627 156.999Z" fill="#ECECEC"></path><path d="M192.13 227.849C192.13 227.849 199.73 273.938 197.278 285.705C194.827 297.227 181.098 288.402 177.666 284.724C174.234 280.802 167.37 255.306 161.486 248.687C155.602 242.313 153.396 210.688 163.692 207.501C173.743 204.559 190.414 225.152 192.13 227.849Z" fill="#ECECEC"></path><path d="M404.678 117.039C404.923 131.258 405.904 158.225 404.433 166.56C403.207 174.895 388.007 247.706 388.007 247.706L372.808 234.223C372.808 234.223 374.524 228.094 372.808 209.217C371.092 190.34 366.189 187.153 363.247 182.985C360.305 178.818 356.138 141.555 358.834 131.503C361.531 121.207 342.164 105.762 327.455 105.762C312.745 105.762 278.179 107.233 264.205 107.233C251.702 107.233 224.49 105.272 214.194 105.762C203.897 106.253 190.169 127.826 183.795 137.632C177.176 147.438 178.402 171.954 177.666 179.553C177.176 187.398 177.911 202.353 180.608 208.482C183.305 214.611 173.008 230.791 173.498 225.152C173.989 219.269 163.447 160.431 159.525 144.496C155.602 128.807 178.892 80.2663 185.266 73.1569C191.64 65.8023 221.303 50.6028 235.522 40.3064C249.986 29.7648 297.056 38.5903 316.178 42.7579C335.054 46.9255 341.428 60.8993 358.834 64.3314C378.446 68.2538 404.433 102.82 404.678 117.039Z" fill="#575757"></path><path d="M402.717 260.944C396.097 267.073 386.782 291.589 383.104 295.021C379.427 298.453 364.473 305.808 363.492 294.04C362.266 282.273 374.279 237.165 374.279 237.165C376.24 234.468 395.117 215.836 404.923 219.759C414.484 223.926 409.336 255.061 402.717 260.944Z" fill="#ECECEC"></path><path d="M335.545 47.1705C335.545 48.8866 335.299 51.3381 334.564 53.0542C334.564 53.0542 338.241 51.093 335.545 47.1705Z" fill="#575757"></path><path d="M347.312 63.3507C347.312 63.3507 280.385 43.2482 282.102 41.0418C284.063 38.8354 254.154 33.1969 254.154 33.1969H269.354C282.592 34.1775 292.398 35.6484 299.998 36.8742L320.591 48.1512C320.591 48.1512 329.661 42.2676 299.998 36.8742L292.888 33.1969C292.888 33.1969 314.952 33.1969 328.435 41.0418C332.358 43.4933 334.564 45.4546 335.545 47.1706C335.545 48.8867 335.3 51.3382 334.564 53.0543C334.564 53.0543 338.242 51.0931 335.545 47.1706C335.79 45.4546 335.79 44.4739 335.79 44.4739C345.596 47.6609 347.312 63.3507 347.312 63.3507Z" fill="#575757"></path><path d="M299.998 36.8741L320.591 48.1512C320.591 48.1512 329.661 42.2675 299.998 36.8741Z" fill="#575757"></path><path d="M234.542 44.4738C234.542 44.4738 232.09 57.9572 223.02 56.2411C214.194 54.7702 192.866 63.3506 192.866 63.3506C200.466 55.996 219.588 48.1511 219.588 48.1511C214.439 46.435 207.575 50.6026 207.575 50.6026C220.568 42.5125 234.542 44.4738 234.542 44.4738Z" fill="#575757"></path><path d="M409.336 140.574C409.336 140.574 406.884 131.994 404.923 129.787C404.923 129.787 408.355 143.761 405.168 161.412C405.168 161.412 404.433 127.09 394.872 119C385.311 111.156 386.782 89.3369 386.782 89.3369C386.782 89.3369 406.639 108.949 408.845 123.413C408.845 123.413 405.658 117.53 403.697 115.813C401.981 112.872 407.374 124.149 409.336 140.574Z" fill="#575757"></path><path d="M277.342 481.903L256.426 482.763C255.382 482.805 254.547 483.645 254.509 484.689L246.82 699.645C246.78 700.777 247.686 701.717 248.819 701.717H277.425C278.529 701.717 279.425 700.821 279.425 699.717V513.134V483.901C279.425 482.764 278.478 481.856 277.342 481.903Z" fill="#EEEEEE"></path><circle cx="267.341" cy="524.296" r="4.94839" fill="#777777"></circle><circle cx="267.341" cy="596.785" r="4.94839" fill="#777777"></circle><circle cx="267.341" cy="669.273" r="4.94839" fill="#777777"></circle></g><defs><linearGradient id="paint0_linear_59_435" x1="385.066" y1="479.621" x2="376.485" y2="578.173" gradientUnits="userSpaceOnUse"><stop stop-color="#BABAB9"></stop><stop offset="1" stop-color="#E1E1E1"></stop></linearGradient><linearGradient id="paint1_linear_59_435" x1="123.732" y1="629.9" x2="371.827" y2="392.592" gradientUnits="userSpaceOnUse"><stop stop-color="#BABAB9"></stop><stop offset="1" stop-color="#E1E1E1"></stop></linearGradient><linearGradient id="paint2_linear_59_435" x1="25.9167" y1="559.541" x2="194.092" y2="398.966" gradientUnits="userSpaceOnUse"><stop stop-color="#BABAB9"></stop><stop offset="1" stop-color="#E1E1E1"></stop></linearGradient><linearGradient id="paint3_linear_59_435" x1="197.523" y1="550.961" x2="197.523" y2="289.873" gradientUnits="userSpaceOnUse"><stop stop-color="#F5F5F5"></stop><stop offset="1" stop-color="#B0B0AF"></stop></linearGradient><linearGradient id="paint4_linear_59_435" x1="16.846" y1="559.051" x2="190.66" y2="393.082" gradientUnits="userSpaceOnUse"><stop stop-color="#9C9C9B"></stop><stop offset="1" stop-color="#C3C3C3"></stop></linearGradient><linearGradient id="paint5_linear_59_435" x1="119.81" y1="625.242" x2="369.131" y2="387.198" gradientUnits="userSpaceOnUse"><stop stop-color="#9C9C9B"></stop><stop offset="1" stop-color="#C3C3C3"></stop></linearGradient><clipPath id="clip0_59_435"><rect width="600" height="690" fill="white" transform="translate(0.5)"></rect></clipPath></defs></svg>